<svg width="252" height="252" viewBox="0 0 252 252" fill="none" xmlns="http://www.w3.org/2000/svg">
<rect width="252" height="252" fill="white"/>
<path d="M68.2218 83.3863C68.2218 85.0381 68.6166 87.0848 69.4068 89.5266C70.197 91.9683 70.6995 93.5842 70.915 94.3742C71.7052 96.7442 72.5308 99.2218 73.3926 101.807L88.3664 147.159L102.478 102.992C98.5287 91.5016 95.7633 84.7507 94.1836 82.7399C93.5372 82.0218 92.6393 81.3395 91.4905 80.6931C90.4132 79.975 89.3721 79.5799 88.3664 79.5082C87.3608 79.3645 85.9604 79.2927 84.1651 79.2927L83.9497 78H112.928L112.712 79.2927C109.911 79.2927 107.972 79.5799 106.895 80.1545C105.818 80.6572 105.279 81.9858 105.279 84.1403C105.279 86.223 106.931 92.112 110.235 101.807L125.424 147.159L139.644 101.807C142.444 92.7583 143.845 86.618 143.845 83.3863C143.845 81.7344 143.162 80.6572 141.798 80.1545C140.505 79.5799 138.459 79.2927 135.658 79.2927L135.442 78H161.619L161.512 79.2927C157.921 79.2927 155.264 79.7595 153.54 80.6931C151.816 81.5549 150.164 83.494 148.585 86.5103C147.005 89.5266 145.066 94.6256 142.768 101.807L126.286 153.946H119.391L103.771 107.409L89.3359 153.946H82.5493L65.0978 101.807C63.1588 95.9901 61.6867 91.8247 60.6811 89.3111C59.7477 86.7257 58.5627 84.5712 57.1262 82.8476C55.7619 81.0522 54.433 80.0108 53.1403 79.7236C51.8476 79.4364 49.8725 79.2927 47.2155 79.2927L47 78H75.978L75.7626 79.2927C72.9617 79.2927 70.9866 79.5441 69.8377 80.0468C68.7605 80.5495 68.2218 81.6627 68.2218 83.3863Z" fill="black"/>
<path d="M205.574 132.734C205.574 151.89 190.045 167.42 170.889 167.42C151.732 167.42 136.203 151.89 136.203 132.734C136.203 113.578 151.732 93.7129 170.889 93.7129C190.045 93.7129 205.574 113.578 205.574 132.734Z" fill="#F8A519"/>
<path d="M176.25 89.377C179.985 89.377 183.36 89.6642 186.376 90.2388C189.465 90.8133 192.696 91.5315 196.071 92.3933L198.334 92.9319L197.364 111.03H188.854L185.299 101.334C183.719 100.114 182.032 99.2159 180.236 98.6413C178.441 97.995 175.676 97.6718 171.941 97.6718C167.345 97.6718 163.251 99.0363 159.66 101.765C156.07 104.423 153.269 108.157 151.258 112.969C149.319 117.78 148.349 123.31 148.349 129.558C148.349 135.95 149.283 141.911 151.15 147.441C153.089 152.899 155.926 157.315 159.66 160.691C163.467 163.994 167.991 165.646 173.234 165.646C180.631 165.646 185.407 163.887 187.561 160.368L191.331 151.211H198.441V168.339C197.579 168.339 196.502 168.555 195.21 168.986C193.917 169.417 193.127 169.668 192.84 169.74C189.034 170.817 185.55 171.679 182.39 172.325C179.231 172.972 175.532 173.295 171.295 173.295C163.611 173.295 156.788 171.679 150.827 168.447C144.866 165.144 140.198 160.512 136.823 154.551C133.519 148.518 131.867 141.587 131.867 133.76C131.867 125.213 133.842 117.565 137.792 110.814C141.814 104.063 147.2 98.8208 153.951 95.0864C160.774 91.2801 168.207 89.377 176.25 89.377Z" fill="black"/>
</svg>
